<svg xmlns="http://www.w3.org/2000/svg" xmlns:xlink="http://www.w3.org/1999/xlink" id="terminal" baseProfile="full" viewBox="0 0 1007 625" width="1007" version="1.1">
    <defs>
        <style type="text/css" id="terminal-style">
            #screen {
                font-family: 'DejaVu Sans Mono', monospace;
                font-style: normal;
                font-size: 14px;
            }

            text {
                dominant-baseline: text-before-edge;
                white-space: pre;
                text-align: left;
            }

            .foreground {fill: #f8f8f2}
            .background {fill: #272822}
            .color0 {fill: #272822}
            .color1 {fill: #f92672}
            .color2 {fill: #a6e22e}
            .color3 {fill: #f4bf75}
            .color4 {fill: #66d9ef}
            .color5 {fill: #ae81ff}
            .color6 {fill: #a1efe4}
            .color7 {fill: #f8f8f2}
            .color8 {fill: #75715e}
            .color9 {fill: #fd971f}
            .color10 {fill: #383830}
            .color11 {fill: #49483e}
            .color12 {fill: #a59f85}
            .color13 {fill: #f5f4f1}
            .color14 {fill: #cc6633}
            .color15 {fill: #f9f8f5}
        </style>
    </defs>

    <rect id="terminalui" class="background" width="100%" height="100%" ry="4.5826941"/>
    <circle cx="24" cy="23" r="7" class="color1"/>
    <circle cx="44" cy="23" r="7" class="color3"/>
    <circle cx="64" cy="23" r="7" class="color2"/>

    <svg id="screen" width="960" height="544" x="23" y="50" viewBox="0 0 960 544" preserveAspectRatio="xMidYMin slice">
        <rect class="background" height="100%" width="100%" x="0" y="0"/>
        <defs>
            <g id="g1"><text x="0" textLength="960" class="foreground">                                                                                                                        </text></g>
            <g id="g2"><text x="0" textLength="960" class="color0">[0] 0:bash*                                                                                   "bookseer" 22:00 01-янв-24</text></g>
        </defs>
        <g>
            <use xlink:href="#g1" y="0"/>
            <use xlink:href="#g1" y="17"/>
            <use xlink:href="#g1" y="34"/>
            <use xlink:href="#g1" y="51"/>
            <use xlink:href="#g1" y="68"/>
            <use xlink:href="#g1" y="85"/>
            <use xlink:href="#g1" y="102"/>
            <use xlink:href="#g1" y="119"/>
            <use xlink:href="#g1" y="136"/>
            <use xlink:href="#g1" y="153"/>
            <use xlink:href="#g1" y="170"/>
            <use xlink:href="#g1" y="187"/>
            <rect x="360" y="204" width="40" height="17" class="color4"/>
            <rect x="408" y="204" width="40" height="17" class="color4"/>
            <rect x="504" y="204" width="40" height="17" class="color4"/>
            <rect x="552" y="204" width="40" height="17" class="color4"/>
            <use xlink:href="#g1" y="204"/>
            <rect x="392" y="221" width="8" height="17" class="color4"/>
            <rect x="440" y="221" width="8" height="17" class="color4"/>
            <rect x="472" y="221" width="8" height="17" class="color4"/>
            <rect x="504" y="221" width="8" height="17" class="color4"/>
            <rect x="536" y="221" width="8" height="17" class="color4"/>
            <rect x="552" y="221" width="8" height="17" class="color4"/>
            <rect x="584" y="221" width="8" height="17" class="color4"/>
            <use xlink:href="#g1" y="221"/>
            <rect x="360" y="238" width="40" height="17" class="color4"/>
            <rect x="408" y="238" width="40" height="17" class="color4"/>
            <rect x="504" y="238" width="8" height="17" class="color4"/>
            <rect x="536" y="238" width="8" height="17" class="color4"/>
            <rect x="552" y="238" width="8" height="17" class="color4"/>
            <rect x="584" y="238" width="8" height="17" class="color4"/>
            <use xlink:href="#g1" y="238"/>
            <rect x="360" y="255" width="8" height="17" class="color4"/>
            <rect x="408" y="255" width="8" height="17" class="color4"/>
            <rect x="472" y="255" width="8" height="17" class="color4"/>
            <rect x="504" y="255" width="8" height="17" class="color4"/>
            <rect x="536" y="255" width="8" height="17" class="color4"/>
            <rect x="552" y="255" width="8" height="17" class="color4"/>
            <rect x="584" y="255" width="8" height="17" class="color4"/>
            <use xlink:href="#g1" y="255"/>
            <rect x="360" y="272" width="40" height="17" class="color4"/>
            <rect x="408" y="272" width="40" height="17" class="color4"/>
            <rect x="504" y="272" width="40" height="17" class="color4"/>
            <rect x="536" y="272" width="8" height="17" class="color4"/>
            <rect x="552" y="272" width="40" height="17" class="color4"/>
            <use xlink:href="#g1" y="272"/>
            <use xlink:href="#g1" y="289"/>
            <use xlink:href="#g1" y="306"/>
            <use xlink:href="#g1" y="323"/>
            <use xlink:href="#g1" y="340"/>
            <use xlink:href="#g1" y="357"/>
            <use xlink:href="#g1" y="374"/>
            <use xlink:href="#g1" y="391"/>
            <use xlink:href="#g1" y="408"/>
            <use xlink:href="#g1" y="425"/>
            <use xlink:href="#g1" y="442"/>
            <use xlink:href="#g1" y="459"/>
            <use xlink:href="#g1" y="476"/>
            <use xlink:href="#g1" y="493"/>
            <use xlink:href="#g1" y="510"/>
            <rect x="0" y="527" width="960" height="17" class="color2"/>
            <use xlink:href="#g2" y="527"/>
        </g>
    </svg>
</svg>